# xmcd CD database file
#
# Track frame offsets:
#	150
#	19635
#	37386
#	55611
#	71861
#	91683
#	112078
#	134995
#	153422
#	172428
#	190661
#	210536
#	228803
#	246576
#
# Disc length: 3522 seconds
#
# Revision: 0
# Processed by: cddbd v1.5.2PL0 Copyright (c) Steve Scherf et al.
# Submitted via: NeoAudio 9.9.9
#
DISCID=d00dc00e
DTITLE=Picante - Latin Salsa Hits - CD2
DYEAR=2011
DGENRE=Salsa
TTITLE0=Quisiera Ser Demente - Charlie Cajares
TTITLE1=Salsa De La Mata - Jesus Pagan y Su Orquesta
TTITLE2=Hoy Comprendo - Eddy Cruz
TTITLE3=La Guarapachanga - Dante Vargas and the Cat Band
TTITLE4=Dejame Beber - Anthony G
TTITLE5=Pa'l Bailador - Joe Arroyo y La Verdad
TTITLE6=Afinando y Aficando - David Cedeno
TTITLE7=Charanga Campesina - Fruko y SUs Tesos
TTITLE8=La RUmba De Las Calaveras - Son De Oriente
TTITLE9=Perjuicio - Gabino Pampini
TTITLE10=Que Suene Mi Campana - Sonora Carruseles
TTITLE11=Celos Por Que - Aris Martinez
TTITLE12=A Pesar - The Latin Brothers
TTITLE13=El Picaflor - Les Nemus
EXTD=YEAR: 2011
EXTT0=
EXTT1=
EXTT2=
EXTT3=
EXTT4=
EXTT5=
EXTT6=
EXTT7=
EXTT8=
EXTT9=
EXTT10=
EXTT11=
EXTT12=
EXTT13=
PLAYORDER=
